<svg width="53" height="53" viewBox="0 0 53 53" fill="none" xmlns="http://www.w3.org/2000/svg">
<g clip-path="url(#clip0_1504_34449)">
<path d="M16.5802 20.3079C16.3439 19.2832 15.6902 18.3513 14.7208 17.945C14.2659 17.755 13.8087 17.6667 13.3671 17.6667C11.8455 17.6667 10.5249 18.7157 10.1804 20.1997L6.92315 34.0062C6.76415 34.6841 7.27648 35.3334 7.97431 35.3334C8.4734 35.3334 8.90623 34.9911 9.02327 34.5053L9.88231 30.9167H16.7613L17.5872 34.4964C17.6998 34.9867 18.1371 35.3334 18.6384 35.3334H18.6649C19.3583 35.3334 19.8706 34.6885 19.716 34.0128L16.5758 20.3079H16.5802ZM10.4123 28.7084L12.3314 20.6988C12.444 20.2151 12.8702 19.875 13.3671 19.875C13.5283 19.875 13.6961 19.9104 13.8661 19.9832C14.1113 20.0848 14.3365 20.4183 14.4249 20.8025L16.2511 28.7084H10.4123ZM43.1067 8.83337H9.98169C4.50061 8.83337 0.0441895 13.292 0.0441895 18.7709V34.2292C0.0441895 39.7081 4.50281 44.1667 9.98169 44.1667H43.1067C48.5856 44.1667 53.0442 39.7081 53.0442 34.2292V18.7709C53.0442 13.292 48.5856 8.83337 43.1067 8.83337ZM2.25252 34.2292V18.7709C2.25252 14.5088 5.71961 11.0417 9.98169 11.0417H25.44V41.9584H9.98169C5.71961 41.9584 2.25252 38.4913 2.25252 34.2292ZM50.8359 34.2292C50.8359 38.4913 47.3688 41.9584 43.1067 41.9584H27.6484V11.0417H43.1067C47.3688 11.0417 50.8359 14.5088 50.8359 18.7709V34.2292ZM48.6275 20.9593V20.9991C48.6275 21.5975 48.1417 22.0834 47.5432 22.0834H46.3375C46.1012 24.1084 45.1958 28.4964 41.7331 31.6698C43.2811 32.4515 45.209 32.9837 47.6029 33.1008C48.177 33.1295 48.6275 33.6065 48.6275 34.1828V34.2226C48.6275 34.8431 48.1086 35.3378 47.488 35.3069C44.244 35.1501 41.7353 34.3175 39.7942 33.1295C37.8531 34.3175 35.3444 35.1501 32.1004 35.3069C31.482 35.3378 30.9609 34.8431 30.9609 34.2226V34.1828C30.9609 33.6087 31.4114 33.1295 31.9855 33.1008C34.3816 32.9815 36.3072 32.4493 37.8575 31.6698C36.665 30.5766 35.775 29.34 35.1125 28.1055C34.7239 27.379 35.2428 26.5 36.0665 26.5C36.4662 26.5 36.8284 26.7209 37.0205 27.072C37.6631 28.2512 38.5553 29.4261 39.7964 30.4265C43.0515 27.8096 43.9083 23.9671 44.1336 22.0856H32.0474C31.4489 22.0856 30.9631 21.5998 30.9631 21.0013V20.9615C30.9631 20.3631 31.4489 19.8773 32.0474 19.8773H38.6922V18.7532C38.6922 18.1547 39.1781 17.6689 39.7765 17.6689H39.8163C40.4147 17.6689 40.9006 18.1547 40.9006 18.7532V19.8773H47.5454C48.1439 19.8773 48.6297 20.3631 48.6297 20.9615L48.6275 20.9593Z" fill="white"/>
</g>
<defs>
<clipPath id="clip0_1504_34449">
<rect width="53" height="53" fill="white"/>
</clipPath>
</defs>
</svg>
