<svg width="59" height="58" viewBox="0 0 59 58" fill="none" xmlns="http://www.w3.org/2000/svg">
<g clip-path="url(#clip0_1462_31816)">
<path d="M22.6608 33.4225L16.0537 26.8153C15.3746 26.1362 15 25.2324 15 24.273C15 23.3136 15.3746 22.4098 16.0537 21.7283L22.7672 15.0172L24.4757 16.7257L17.7623 23.4368C17.5399 23.6592 17.4167 23.9564 17.4167 24.273C17.4167 24.5896 17.5399 24.8844 17.7623 25.1068L24.3694 31.7139L22.6608 33.4225ZM41.3513 25.1068L34.6886 31.7695L36.3972 33.4781L43.0599 26.8153C44.4616 25.4137 44.4616 23.1323 43.0599 21.7283L36.2908 14.9592L34.5822 16.6678L41.3513 23.4368C41.8129 23.896 41.8129 24.6452 41.3513 25.1068ZM58.5 38.6667V44.7083C58.5 48.0385 55.7885 50.75 52.4583 50.75H6.54167C3.2115 50.75 0.5 48.0385 0.5 44.7083V38.6667H5.33333V7.25H53.6667V38.6667H58.5ZM7.75 38.6667H21.5419L23.9586 41.0833H35.0414L37.4581 38.6667H51.25V9.66667H7.75V38.6667ZM56.0833 41.0833H38.4586L36.0419 43.5H22.9581L20.5414 41.0833H2.91667V44.7083C2.91667 46.7069 4.54308 48.3333 6.54167 48.3333H52.4583C54.4569 48.3333 56.0833 46.7069 56.0833 44.7083V41.0833Z" fill="white"/>
</g>
<defs>
<clipPath id="clip0_1462_31816">
<rect width="58" height="58" fill="white" transform="translate(0.5)"/>
</clipPath>
</defs>
</svg>
