<svg width="52" height="52" viewBox="0 0 52 52" fill="none" xmlns="http://www.w3.org/2000/svg">
<g clip-path="url(#clip0_1467_31870)">
<path d="M52 15.0107V43.3334H27.0833V49.8334H37.9167V52H14.0833V49.8334H24.9167V43.3334H0V9.75002C0 6.76219 2.431 4.33336 5.41667 4.33336H33.54C32.9918 4.97252 32.37 5.70053 31.6853 6.50003H5.41667C3.62483 6.50003 2.16667 7.95819 2.16667 9.75002V41.1667H49.8333V17.3485L52 15.0107ZM24.3772 21.7144C41.2923 1.93053 41.3682 1.85252 41.405 1.81569C43.8273 -0.600142 47.7663 -0.595809 50.1843 1.82002C52.598 4.24019 52.598 8.18136 50.1843 10.5994L32.4502 29.7267C32.1988 33.683 28.9337 36.8355 24.9145 36.8355H12.8028L13.013 35.5745C13.1062 35.0177 15.366 22.2279 24.375 21.7165L24.3772 21.7144ZM30.3333 29.25C30.3333 26.2622 27.9023 23.8334 24.9167 23.8334C18.7763 23.8334 16.211 31.5662 15.431 34.6667H24.9167C27.9023 34.6667 30.3333 32.2379 30.3333 29.25ZM32.097 26.9252L36.5733 22.0957C35.854 19.526 33.6028 17.6389 30.927 17.3897C29.5382 19.0125 28.1948 20.5855 26.9902 21.9939C29.4103 22.6894 31.3192 24.5419 32.097 26.9274V26.9252ZM32.5477 15.4939C35.0653 16.172 37.1518 17.9509 38.2178 20.3234L48.6243 9.10002C50.2212 7.49452 50.2212 4.92919 48.6503 3.35186C47.0817 1.78102 44.5163 1.77669 42.9368 3.35186C42.7873 3.52519 37.661 9.51819 32.5477 15.4982V15.4939Z" fill="white"/>
</g>
<defs>
<clipPath id="clip0_1467_31870">
<rect width="52" height="52" fill="white"/>
</clipPath>
</defs>
</svg>
