<svg width="21" height="21" viewBox="0 0 21 21" fill="none" xmlns="http://www.w3.org/2000/svg">
<path d="M10.5 7.65625C9.74579 7.65625 9.02247 7.95586 8.48917 8.48917C7.95586 9.02247 7.65625 9.74579 7.65625 10.5C7.65625 11.2542 7.95586 11.9775 8.48917 12.5108C9.02247 13.0441 9.74579 13.3438 10.5 13.3438C11.2542 13.3438 11.9775 13.0441 12.5108 12.5108C13.0441 11.9775 13.3438 11.2542 13.3438 10.5C13.3438 9.74579 13.0441 9.02247 12.5108 8.48917C11.9775 7.95586 11.2542 7.65625 10.5 7.65625Z" fill="#4A5568"/>
<path fill-rule="evenodd" clip-rule="evenodd" d="M5.92379 2.69679C8.96532 2.35986 12.0348 2.35986 15.0763 2.69679C16.7379 2.88229 18.0775 4.19042 18.2727 5.85817C18.6331 8.94226 18.6331 12.0578 18.2727 15.1419C18.0775 16.8097 16.7379 18.1178 15.0772 18.3042C12.0353 18.6412 8.96561 18.6412 5.92379 18.3042C4.26217 18.1178 2.92254 16.8097 2.72742 15.1428C2.3669 12.0584 2.3669 8.94255 2.72742 5.85817C2.92254 4.19042 4.26217 2.88229 5.92379 2.69679ZM14.875 5.25004C14.643 5.25004 14.4204 5.34223 14.2563 5.50633C14.0922 5.67042 14 5.89298 14 6.12504C14 6.35711 14.0922 6.57967 14.2563 6.74376C14.4204 6.90786 14.643 7.00004 14.875 7.00004C15.1071 7.00004 15.3297 6.90786 15.4938 6.74376C15.6579 6.57967 15.75 6.35711 15.75 6.12504C15.75 5.89298 15.6579 5.67042 15.4938 5.50633C15.3297 5.34223 15.1071 5.25004 14.875 5.25004ZM6.34379 10.5C6.34379 9.39774 6.78168 8.34058 7.56113 7.56113C8.34058 6.78168 9.39774 6.34379 10.5 6.34379C11.6023 6.34379 12.6595 6.78168 13.439 7.56113C14.2184 8.34058 14.6563 9.39774 14.6563 10.5C14.6563 11.6024 14.2184 12.6595 13.439 13.439C12.6595 14.2184 11.6023 14.6563 10.5 14.6563C9.39774 14.6563 8.34058 14.2184 7.56113 13.439C6.78168 12.6595 6.34379 11.6024 6.34379 10.5Z" fill="#4A5568"/>
</svg>
