<svg width="58" height="58" viewBox="0 0 58 58" fill="none" xmlns="http://www.w3.org/2000/svg">
<g clip-path="url(#clip0_1500_34407)">
<path d="M53.8603 27.7868L44.7083 24.7515L35.5564 27.7868C33.0793 28.6085 31.4167 30.9116 31.4167 33.5216V42.0814C31.7574 51.591 40.9432 56.1899 44.6576 58.116C48.488 56.5089 57.6472 52.7703 58 42.0814V33.5216C58 30.9116 56.3373 28.6061 53.8603 27.7868ZM55.5833 42.0814C55.5833 50.46 47.3449 54.4282 44.8219 55.4456L44.7663 55.4673L44.7132 55.4408C42.1612 54.1648 33.8358 49.4305 33.8358 42.0814V33.5216C33.8358 31.958 34.8338 30.5732 36.3201 30.0802L44.7108 27.2987L53.1014 30.0802C54.5877 30.5732 55.5858 31.9556 55.5858 33.5216L55.5833 42.0814ZM29.4785 55.564C28.1348 54.2155 22.9124 48.6596 19.6306 41.0833H26.5833V38.6667H18.6857C17.6248 35.6531 16.9167 32.4002 16.9167 29C16.9167 25.5998 17.6223 22.3469 18.6857 19.3333H53.7201C54.1889 20.5296 54.5925 21.7621 54.8849 23.0333C55.8323 23.3184 56.7554 23.7317 57.5771 24.244C55.2958 10.5125 43.3671 0 29 0C13.0089 0 0 13.0089 0 29C0 44.9911 13.0089 58 29 58C30.9382 58 32.8304 57.8018 34.6623 57.4369C33.9034 56.7989 33.1494 56.1005 32.4148 55.3393C31.4505 55.4649 30.4693 55.5423 29.4785 55.564ZM19.6306 16.9167C22.6007 10.0557 27.1633 4.85508 29.0024 2.92658C30.8608 4.86958 35.4477 10.0799 38.4008 16.9167H19.6306ZM52.6447 16.9167H41.0084C38.4226 10.4666 34.4544 5.36983 32.0015 2.60517C41.0205 3.625 48.6741 9.16642 52.6447 16.9167ZM26.0033 2.59792C23.5408 5.36258 19.5653 10.469 16.9867 16.9167H5.3505C9.32592 9.16883 16.9795 3.61533 26.0033 2.59792ZM4.263 19.3333H16.1168C15.1404 22.3493 14.5 25.5901 14.5 29C14.5 32.4099 15.1404 35.6507 16.1168 38.6667H4.263C3.08608 35.6652 2.41667 32.4123 2.41667 29C2.41667 25.5877 3.08608 22.3348 4.263 19.3333ZM5.3505 41.0833H16.9867C19.5653 47.5334 23.5408 52.6374 26.0033 55.4021C16.9795 54.3847 9.32592 48.8312 5.3505 41.0833Z" fill="white"/>
</g>
<defs>
<clipPath id="clip0_1500_34407">
<rect width="58" height="58" fill="white"/>
</clipPath>
</defs>
</svg>
