<svg width="50" height="50" viewBox="0 0 50 50" fill="none" xmlns="http://www.w3.org/2000/svg">
<g clip-path="url(#clip0_1467_31836)">
<path d="M11.4583 20.8333C5.03333 20.8333 0 23.5792 0 27.0833V43.75C0 47.2542 5.03333 50 11.4583 50C17.8833 50 22.9167 47.2542 22.9167 43.75V27.0833C22.9167 23.5792 17.8833 20.8333 11.4583 20.8333ZM11.4583 47.9167C5.93333 47.9167 2.08333 45.7208 2.08333 43.75V39.0542C4.13958 40.6458 7.54167 41.6667 11.4583 41.6667C15.375 41.6667 18.7771 40.6458 20.8333 39.0542V43.75C20.8333 45.7208 16.9833 47.9167 11.4583 47.9167ZM11.4583 39.5833C5.93333 39.5833 2.08333 37.3875 2.08333 35.4167V30.7208C4.13958 32.3125 7.54167 33.3333 11.4583 33.3333C15.375 33.3333 18.7771 32.3125 20.8333 30.7208V35.4167C20.8333 37.3875 16.9833 39.5833 11.4583 39.5833ZM11.4583 31.25C5.93333 31.25 2.08333 29.0542 2.08333 27.0833C2.08333 25.1125 5.93333 22.9167 11.4583 22.9167C16.9833 22.9167 20.8333 25.1125 20.8333 27.0833C20.8333 29.0542 16.9833 31.25 11.4583 31.25ZM41.6667 8.33333H16.6667V18.75H41.6667V8.33333ZM39.5833 16.6667H18.75V10.4167H39.5833V16.6667ZM41.6667 27.0833H39.5833V22.9167H41.6667V27.0833ZM35.4167 27.0833H33.3333V22.9167H35.4167V27.0833ZM29.1667 27.0833H27.0833V22.9167H29.1667V27.0833ZM27.0833 31.25H29.1667V35.4167H27.0833V31.25ZM33.3333 31.25H35.4167V35.4167H33.3333V31.25ZM41.6667 35.4167H39.5833V31.25H41.6667V35.4167ZM27.0833 39.5833H41.6667V41.6667H27.0833V39.5833ZM50 5.20833V50H24.1937C24.8792 49.3604 25.4667 48.6687 25.9187 47.9167H47.9167V5.20833C47.9167 3.48542 46.5146 2.08333 44.7917 2.08333H13.5417C11.8187 2.08333 10.4167 3.48542 10.4167 5.20833V16.6979C9.70625 16.725 9.00833 16.7708 8.33333 16.8521V5.20833C8.33333 2.3375 10.6687 0 13.5417 0H44.7917C47.6646 0 50 2.3375 50 5.20833Z" fill="white"/>
</g>
<defs>
<clipPath id="clip0_1467_31836">
<rect width="50" height="50" fill="white"/>
</clipPath>
</defs>
</svg>
