<svg width="52" height="52" viewBox="0 0 52 52" fill="none" xmlns="http://www.w3.org/2000/svg">
<g clip-path="url(#clip0_1500_34428)">
<path d="M52 49.8333C52 51.0293 51.0293 52 49.8333 52H6.5C2.91633 52 0 49.0837 0 45.5V2.16667C0 0.970667 0.970667 0 2.16667 0C3.36267 0 4.33333 0.970667 4.33333 2.16667V45.5C4.33333 46.6938 5.30617 47.6667 6.5 47.6667H49.8333C51.0293 47.6667 52 48.6373 52 49.8333ZM45.5 10.8333H36.8333C35.6373 10.8333 34.6667 11.804 34.6667 13C34.6667 14.196 35.6373 15.1667 36.8333 15.1667H44.5532L34.0297 25.3652C33.2128 26.1842 31.785 26.1842 30.9682 25.3652C30.8793 25.2785 28.2837 23.4303 28.2837 23.4303C25.818 21.1055 21.6168 21.1922 19.266 23.5408L9.32967 33.1045C8.46733 33.9343 8.44133 35.3058 9.27117 36.1682C9.698 36.6102 10.2635 36.8333 10.8333 36.8333C11.375 36.8333 11.9167 36.6318 12.3348 36.2288L22.3015 26.6348C23.1183 25.8158 24.5462 25.8158 25.363 26.6348C25.4518 26.7215 28.0475 28.5697 28.0475 28.5697C30.5153 30.8967 34.7122 30.8143 37.0695 28.4527L47.6645 18.1827V25.9978C47.6645 27.1938 48.6352 28.1645 49.8312 28.1645C51.0272 28.1645 51.9978 27.1938 51.9978 25.9978V17.3312C51.9978 13.7475 49.0815 10.8312 45.4978 10.8312L45.5 10.8333Z" fill="white"/>
</g>
<defs>
<clipPath id="clip0_1500_34428">
<rect width="52" height="52" fill="white"/>
</clipPath>
</defs>
</svg>
