<svg width="53" height="53" viewBox="0 0 53 53" fill="none" xmlns="http://www.w3.org/2000/svg">
<g clip-path="url(#clip0_1500_34436)">
<path d="M33.1251 20.9792C33.1251 24.0289 30.6539 26.5 27.6042 26.5C24.5545 26.5 22.0834 24.0289 22.0834 20.9792C22.0834 17.9295 24.5545 15.4583 27.6042 15.4583C30.6539 15.4583 33.1251 17.9295 33.1251 20.9792ZM44.1667 22.0833C47.2164 22.0833 49.6876 19.6122 49.6876 16.5625C49.6876 13.5128 47.2164 11.0417 44.1667 11.0417C41.117 11.0417 38.6459 13.5128 38.6459 16.5625C38.6459 19.6122 41.117 22.0833 44.1667 22.0833ZM53.0001 33.125V37.5417C53.0001 39.9819 51.6574 42.0952 49.6876 43.2458V50.7917C49.6876 52.0129 48.7004 53 47.4792 53C46.258 53 45.2709 52.0129 45.2709 50.7917V44.1667H43.0626V50.7917C43.0626 52.0129 42.0754 53 40.8542 53C39.633 53 38.6459 52.0129 38.6459 50.7917V43.2458C36.6761 42.0975 35.3334 39.9841 35.3334 37.5417V33.125C35.3334 28.2534 39.2952 24.2917 44.1667 24.2917C49.0383 24.2917 53.0001 28.2534 53.0001 33.125ZM12.1459 19.875C9.09619 19.875 6.62506 22.3461 6.62506 25.3958C6.62506 28.4455 9.09619 30.9167 12.1459 30.9167C15.1956 30.9167 17.6667 28.4455 17.6667 25.3958C17.6667 22.3461 15.1956 19.875 12.1459 19.875ZM26.5001 11.0417C26.5001 12.2629 27.4872 13.25 28.7084 13.25C29.9296 13.25 30.9167 12.2629 30.9167 11.0417V3.3125C30.9167 1.48621 29.4305 0 27.6042 0H19.8751C18.6539 0 17.6667 0.987125 17.6667 2.20833C17.6667 3.42954 18.6539 4.41667 19.8751 4.41667H23.2538L16.313 11.0549C16.1673 11.194 15.931 11.194 15.7874 11.0461L14.1334 9.39646C12.2651 7.52821 9.22427 7.52821 7.35823 9.39646L0.647106 16.1054C-0.216353 16.9688 -0.216353 18.3645 0.647106 19.228C1.51056 20.0914 2.90623 20.0914 3.76969 19.228L10.4786 12.519C10.6045 12.3932 10.8849 12.391 11.0086 12.519L12.6604 14.1665C14.4867 15.9972 17.4923 16.0325 19.3627 14.2437L26.4979 7.42221V11.0395L26.5001 11.0417ZM15.4584 39.75V37.5417C15.4584 36.8019 15.5224 36.0753 15.6439 35.3709C15.8449 34.1894 14.882 33.125 13.6829 33.125H12.1459C7.87719 33.125 4.41673 36.5855 4.41673 40.8542V41.9583C4.41673 44.8336 6.26952 47.2627 8.8334 48.177V50.7917C8.8334 52.0129 9.82052 53 11.0417 53C12.2629 53 13.2501 52.0129 13.2501 50.7917V48.5833H14.4889C16.4014 48.5833 17.6358 46.5539 16.737 44.8667C15.9221 43.3407 15.4584 41.6006 15.4584 39.75ZM32.69 42.919C32.6922 42.9057 32.7011 42.8637 32.7011 42.8637C31.4269 41.3069 30.9167 39.2156 30.9167 37.5417V33.125C30.9167 32.6701 30.9388 32.2218 30.9852 31.7779C31.1685 29.9803 29.5034 28.5295 27.7146 28.7768C26.7518 28.9115 25.4224 29.2405 24.3491 29.8699C21.3237 31.6454 19.8751 34.5405 19.8751 37.5704V39.75C19.8751 42.6297 21.7234 45.0566 24.2917 45.9687V50.7917C24.2917 52.0129 25.2789 53 26.5001 53C27.7213 53 28.7084 52.0129 28.7084 50.7917V46.375H30.9167C32.1357 46.375 33.1251 45.3857 33.1251 44.1667C33.1251 43.6941 32.944 43.2789 32.69 42.919Z" fill="white"/>
</g>
<defs>
<clipPath id="clip0_1500_34436">
<rect width="53" height="53" fill="white"/>
</clipPath>
</defs>
</svg>
