<svg width="54" height="54" viewBox="0 0 54 54" fill="none" xmlns="http://www.w3.org/2000/svg">
<path d="M29.0137 29.25H23.3392L21.0262 46.215C20.4187 50.6543 16.5869 54 12.1094 54H6.7522V49.5H12.1094C14.3482 49.5 16.2652 47.826 16.5689 45.6075L18.7987 29.25H11.9789L12.6224 24.75H19.4129L21.7259 7.785C22.3334 3.34575 26.1652 0 30.6427 0H35.9999V4.5H30.6427C28.4039 4.5 26.4869 6.174 26.1832 8.3925L23.9534 24.75H29.6572L29.0137 29.25ZM46.9912 33.75H41.7465L38.2499 39.555L34.6072 33.75H29.3624L35.6129 43.8682L29.3624 54H34.5982L38.2499 48.1792L41.7555 54H46.9912L40.887 43.8682L46.9912 33.75Z" fill="white"/>
</svg>
